# xmcd
#
# Track frame offsets:
#	150
#	18484
#	44688
#
# Disc length: 824 seconds
#
# Revision: 1
# Processed by: cddbd v1.5.2PL0 Copyright (c) Steve Scherf et al.
# Submitted via: EasyCDDAExtractor 2010.6.0.0
#
DISCID=21033603
DTITLE=Deak Bill Gyula - Nem haragszom senkire (Maxi)
DYEAR=2000
DGENRE=Blues
TTITLE0=Nem haragszom senkire (Redio Edit)
TTITLE1=Nem haragszom senkire (Album Version)
TTITLE2=Baro roma csaj (Album Version)
EXTD=
EXTT0=
EXTT1=
EXTT2=
PLAYORDER=
